<mxfile host="app.diagrams.net" modified="2023-09-14T23:36:36.930Z" agent="Mozilla/5.0 (Windows NT 10.0; Win64; x64) AppleWebKit/537.36 (KHTML, like Gecko) Chrome/116.0.0.0 Safari/537.36" etag="JWC0if5_m-ldGi6r0mFW" version="21.7.2" type="github">
  <diagram name="Page-1" id="GpOjDrgtLoO-brThM8L4">
    <mxGraphModel dx="2074" dy="1118" grid="1" gridSize="10" guides="1" tooltips="1" connect="1" arrows="1" fold="1" page="1" pageScale="1" pageWidth="827" pageHeight="1169" math="0" shadow="0">
      <root>
        <mxCell id="0" />
        <mxCell id="1" parent="0" />
        <mxCell id="vmSKmzuoKI_OMBGahfuy-1" value="a,b" style="rounded=1;whiteSpace=wrap;html=1;" vertex="1" parent="1">
          <mxGeometry x="120" y="300" width="120" height="40" as="geometry" />
        </mxCell>
        <mxCell id="vmSKmzuoKI_OMBGahfuy-2" value="a,b" style="rounded=1;whiteSpace=wrap;html=1;" vertex="1" parent="1">
          <mxGeometry x="120" y="360" width="120" height="40" as="geometry" />
        </mxCell>
        <mxCell id="vmSKmzuoKI_OMBGahfuy-3" value="a,b" style="rounded=1;whiteSpace=wrap;html=1;" vertex="1" parent="1">
          <mxGeometry x="370" y="280" width="120" height="30" as="geometry" />
        </mxCell>
        <mxCell id="vmSKmzuoKI_OMBGahfuy-4" value="a,b" style="rounded=1;whiteSpace=wrap;html=1;" vertex="1" parent="1">
          <mxGeometry x="370" y="320" width="120" height="30" as="geometry" />
        </mxCell>
        <mxCell id="vmSKmzuoKI_OMBGahfuy-5" value="a,b" style="rounded=1;whiteSpace=wrap;html=1;" vertex="1" parent="1">
          <mxGeometry x="370" y="360" width="120" height="30" as="geometry" />
        </mxCell>
        <mxCell id="vmSKmzuoKI_OMBGahfuy-6" value="a,b" style="rounded=1;whiteSpace=wrap;html=1;" vertex="1" parent="1">
          <mxGeometry x="370" y="400" width="120" height="30" as="geometry" />
        </mxCell>
        <mxCell id="vmSKmzuoKI_OMBGahfuy-7" value="" style="shape=flexArrow;endArrow=classic;html=1;rounded=0;width=11;endSize=9.67;" edge="1" parent="1">
          <mxGeometry width="50" height="50" relative="1" as="geometry">
            <mxPoint x="270" y="349.92" as="sourcePoint" />
            <mxPoint x="340" y="349.92" as="targetPoint" />
          </mxGeometry>
        </mxCell>
        <mxCell id="vmSKmzuoKI_OMBGahfuy-8" value="扩容" style="edgeLabel;html=1;align=center;verticalAlign=middle;resizable=0;points=[];labelBackgroundColor=none;" vertex="1" connectable="0" parent="vmSKmzuoKI_OMBGahfuy-7">
          <mxGeometry x="-0.1524" y="3" relative="1" as="geometry">
            <mxPoint x="18" y="3" as="offset" />
          </mxGeometry>
        </mxCell>
        <mxCell id="vmSKmzuoKI_OMBGahfuy-9" value="" style="shape=flexArrow;endArrow=classic;html=1;rounded=0;width=11;endSize=9.67;" edge="1" parent="1">
          <mxGeometry width="50" height="50" relative="1" as="geometry">
            <mxPoint x="520" y="350" as="sourcePoint" />
            <mxPoint x="590" y="350" as="targetPoint" />
          </mxGeometry>
        </mxCell>
        <mxCell id="vmSKmzuoKI_OMBGahfuy-10" value="缩容" style="edgeLabel;html=1;align=center;verticalAlign=middle;resizable=0;points=[];labelBackgroundColor=none;" vertex="1" connectable="0" parent="vmSKmzuoKI_OMBGahfuy-9">
          <mxGeometry x="-0.019" y="-2" relative="1" as="geometry">
            <mxPoint x="14" y="-2" as="offset" />
          </mxGeometry>
        </mxCell>
        <mxCell id="vmSKmzuoKI_OMBGahfuy-11" value="a,b" style="rounded=1;whiteSpace=wrap;html=1;" vertex="1" parent="1">
          <mxGeometry x="600" y="335" width="120" height="30" as="geometry" />
        </mxCell>
      </root>
    </mxGraphModel>
  </diagram>
</mxfile>
